<?xml version="1.0" encoding="UTF-8"?>
<svg id="_图层_1" data-name="图层 1" xmlns="http://www.w3.org/2000/svg" xmlns:xlink="http://www.w3.org/1999/xlink" viewBox="0 0 210.82 80.88">
  <defs>
    <style>
      .cls-1 {
        fill: #489f9d;
      }

      .cls-2 {
        fill: url(#radial-gradient-7);
      }

      .cls-3 {
        fill: url(#radial-gradient-6);
      }

      .cls-4 {
        fill: url(#radial-gradient-5);
      }

      .cls-5 {
        fill: url(#radial-gradient-4);
      }

      .cls-6 {
        fill: url(#radial-gradient-8);
      }

      .cls-7 {
        fill: url(#radial-gradient-3);
      }

      .cls-8 {
        fill: url(#radial-gradient-2);
      }

      .cls-9 {
        fill: url(#radial-gradient);
      }
    </style>
    <radialGradient id="radial-gradient" cx="37.42" cy="11.53" fx="37.42" fy="11.53" r="16.38" gradientUnits="userSpaceOnUse">
      <stop offset="0" stop-color="#bae2f8"/>
      <stop offset=".5" stop-color="#32ace3"/>
      <stop offset=".98" stop-color="#0057a7"/>
      <stop offset="1" stop-color="#0057a7"/>
    </radialGradient>
    <radialGradient id="radial-gradient-2" cx="1008.94" cy="-940.77" fx="1008.94" fy="-940.77" r="16.38" gradientTransform="translate(1049.65 -871.42) rotate(-180)" xlink:href="#radial-gradient"/>
    <radialGradient id="radial-gradient-3" cx="-134.08" cy="-634.32" fx="-134.08" fy="-634.32" r="16.38" gradientTransform="translate(629.56 228.46) rotate(-60)" xlink:href="#radial-gradient"/>
    <radialGradient id="radial-gradient-4" cx="1181.01" cy="-294.81" fx="1181.01" fy="-294.81" r="16.38" gradientTransform="translate(400.13 -1116.69) rotate(120)" xlink:href="#radial-gradient"/>
    <radialGradient id="radial-gradient-5" cx="682.76" cy="186.02" fx="682.76" fy="186.02" r="16.38" gradientTransform="translate(-117 -659.73) rotate(60)" xlink:href="#radial-gradient"/>
    <radialGradient id="radial-gradient-6" cx="363.78" cy="-1114.72" fx="363.78" fy="-1114.72" r="16.38" gradientTransform="translate(1162.08 -186) rotate(-120)" xlink:href="#radial-gradient"/>
    <radialGradient id="radial-gradient-7" cx="138.53" cy="129.94" fx="138.53" fy="129.94" r="17.76" gradientTransform="translate(-82.82 -68.65) scale(.84)" gradientUnits="userSpaceOnUse">
      <stop offset="0" stop-color="#d71718"/>
      <stop offset="1" stop-color="#4c0f14"/>
    </radialGradient>
    <radialGradient id="radial-gradient-8" cx="-1120.14" cy="-1365.97" fx="-1120.14" fy="-1365.97" r="17.76" gradientTransform="translate(-895.74 -1114.11) rotate(-180) scale(.84)" gradientUnits="userSpaceOnUse">
      <stop offset="0" stop-color="#fffded"/>
      <stop offset=".25" stop-color="#f3d296"/>
      <stop offset=".72" stop-color="#8f813c"/>
    </radialGradient>
  </defs>
  <g>
    <g>
      <g>
        <path class="cls-9" d="M50.28,3.64c-1.88-1.26-4.46-2.5-7.8-3.16-8.43-1.64-14.83,1.26-18.86,3.81-4.02,2.55-6.3,6.58-6.3,6.58,0,0,7.96-7.56,20.46,4.51,1.75,1.55,4.46,4.22,5.44,5,.21.17.44.34.67.51,1.45,1.33,3.36,2.17,5.48,2.17,4.5,0,8.14-3.65,8.14-8.14.06-2.3-1.75-7.32-7.24-11.27Z"/>
        <path class="cls-8" d="M27.85,77.25c1.89,1.26,4.46,2.5,7.81,3.16,8.42,1.63,14.83-1.26,18.86-3.82,4.02-2.55,6.29-6.58,6.29-6.58,0,0-7.96,7.57-20.47-4.51-1.75-1.55-4.46-4.21-5.44-5-.21-.17-.43-.34-.67-.51-1.45-1.33-3.36-2.16-5.48-2.16-4.5,0-8.13,3.64-8.13,8.14-.06,2.3,1.75,7.33,7.23,11.28Z"/>
      </g>
      <g>
        <path class="cls-7" d="M12.8,12.33c-2.04,1-4.41,2.6-6.64,5.18C.53,23.99-.17,30.98.03,35.75c.21,4.77,2.55,8.74,2.55,8.74,0,0-2.57-10.68,14.14-15.47,2.22-.75,5.89-1.75,7.05-2.21.25-.1.51-.21.78-.33,1.87-.59,3.55-1.83,4.61-3.67,2.24-3.89.91-8.87-2.98-11.11-1.97-1.2-7.22-2.15-13.38.63Z"/>
        <path class="cls-5" d="M65.32,68.55c2.04-1.01,4.4-2.61,6.64-5.18,5.63-6.49,6.33-13.48,6.13-18.24-.2-4.76-2.55-8.74-2.55-8.74,0,0,2.57,10.67-14.14,15.47-2.22.74-5.89,1.76-7.05,2.22-.25.1-.51.21-.78.33-1.87.58-3.54,1.82-4.61,3.66-2.25,3.9-.91,8.87,2.98,11.12,1.96,1.21,7.22,2.15,13.38-.63Z"/>
      </g>
      <g>
        <path class="cls-4" d="M76.54,31.76c.15-2.26-.06-5.12-1.17-8.35-2.79-8.11-8.51-12.22-12.72-14.42-4.23-2.21-8.85-2.17-8.85-2.17,0,0,10.54,3.11,6.33,19.98-.46,2.3-1.42,5.97-1.61,7.22-.04.26-.07.54-.1.84-.43,1.92-.19,3.99.87,5.83,2.25,3.89,7.23,5.23,11.12,2.98,2.02-1.1,5.46-5.18,6.14-11.9Z"/>
        <path class="cls-3" d="M1.58,49.13c-.15,2.26.06,5.11,1.17,8.34,2.8,8.12,8.51,12.22,12.73,14.42,4.22,2.21,8.85,2.17,8.85,2.17,0,0-10.54-3.11-6.33-19.97.46-2.31,1.42-5.98,1.6-7.22.04-.27.08-.55.11-.84.43-1.91.18-3.99-.88-5.83-2.25-3.9-7.22-5.23-11.12-2.98-2.02,1.09-5.47,5.18-6.14,11.9Z"/>
      </g>
    </g>
    <g>
      <path class="cls-2" d="M28.34,39.16c-.07.26-.21,1.05-.22,1.19,0,.13,0,.26,0,.39v.21c.05,5.9,4.97,10.34,11.27,10.68,4.4.24,7.87-1.97,9.24-4.71-1.41,1.11-3.19,1.74-5.11,1.68-3.56-.1-6.4-2.57-7.44-5.81-1.08-3.38,1.72-5.86,3.83-3.87.1-4.24-9.7-6.99-11.58.24"/>
      <path class="cls-6" d="M50.13,41.82c.07-.26.22-1.05.22-1.19,0-.13,0-.26,0-.39v-.21c-.05-5.9-4.97-10.35-11.27-10.68-4.4-.24-7.87,1.96-9.24,4.71,1.41-1.11,3.19-1.74,5.12-1.68,3.56.1,6.4,2.57,7.43,5.81,1.08,3.38-1.72,5.86-3.83,3.87-.11,4.24,9.7,6.98,11.58-.24"/>
    </g>
  </g>
  <g>
    <g>
      <path class="cls-1" d="M97.79,63.99h-2.5v-9.3h-3.02v-2.21h8.54v2.21h-3.02v9.3Z"/>
      <path class="cls-1" d="M102.25,63.99v-11.5h7.03v2.19h-4.51v2.37h4.18v2.11h-4.18v2.65h4.74v2.19h-7.26Z"/>
      <path class="cls-1" d="M110.25,58.24c0-2.12.48-3.64,1.43-4.55.95-.91,2.33-1.37,4.13-1.37,1.08,0,1.98.13,2.69.38v2.17c-.76-.27-1.6-.4-2.52-.4-.71,0-1.28.12-1.71.36-.43.24-.75.63-.96,1.17-.21.54-.31,1.28-.31,2.22s.1,1.75.31,2.29c.2.54.52.92.94,1.13.42.22.99.32,1.71.32.96,0,1.86-.15,2.68-.45v2.15c-.35.14-.78.26-1.27.35-.49.09-1,.13-1.53.13-1.22,0-2.22-.17-3.02-.51-.8-.34-1.43-.94-1.87-1.8-.45-.86-.67-2.07-.67-3.61Z"/>
      <path class="cls-1" d="M127.49,63.99v-5.09h-4.54v5.09h-2.52v-11.5h2.52v4.31h4.54v-4.31h2.5v11.5h-2.5Z"/>
      <path class="cls-1" d="M139.59,60.71h.1v-8.22h2.47v11.5h-3.55l-3.6-8.75h-.1v8.75h-2.49v-11.5h3.93l3.23,8.22Z"/>
      <path class="cls-1" d="M144.27,58.24c0-1.52.2-2.72.6-3.58s.97-1.47,1.73-1.81,1.72-.52,2.89-.52,2.15.17,2.91.52,1.33.95,1.72,1.81.59,2.06.59,3.58-.2,2.72-.59,3.58c-.39.86-.97,1.47-1.72,1.81s-1.73.52-2.91.52-2.14-.17-2.89-.52-1.33-.95-1.73-1.81c-.4-.86-.6-2.06-.6-3.58ZM152.08,58.24c0-.98-.07-1.75-.21-2.29-.14-.54-.39-.94-.76-1.19-.37-.25-.91-.38-1.62-.38s-1.23.13-1.6.38c-.37.25-.63.65-.76,1.19-.14.54-.21,1.3-.21,2.29s.07,1.74.21,2.28c.14.54.39.93.75,1.17.36.24.9.37,1.61.37s1.25-.12,1.62-.37c.37-.24.62-.63.76-1.17.14-.54.21-1.3.21-2.28Z"/>
      <path class="cls-1" d="M156.83,63.99v-11.5h2.52v9.32h4.58v2.19h-7.09Z"/>
      <path class="cls-1" d="M165.14,58.24c0-1.52.2-2.72.6-3.58s.97-1.47,1.73-1.81,1.72-.52,2.89-.52,2.15.17,2.91.52,1.33.95,1.72,1.81.59,2.06.59,3.58-.2,2.72-.59,3.58c-.39.86-.97,1.47-1.72,1.81s-1.73.52-2.91.52-2.14-.17-2.89-.52-1.33-.95-1.73-1.81c-.4-.86-.6-2.06-.6-3.58ZM172.95,58.24c0-.98-.07-1.75-.21-2.29-.14-.54-.39-.94-.76-1.19-.37-.25-.91-.38-1.62-.38s-1.23.13-1.6.38c-.37.25-.63.65-.76,1.19-.14.54-.21,1.3-.21,2.29s.07,1.74.21,2.28c.14.54.39.93.75,1.17.36.24.9.37,1.61.37s1.25-.12,1.62-.37c.37-.24.62-.63.76-1.17.14-.54.21-1.3.21-2.28Z"/>
      <path class="cls-1" d="M177.39,58.24c0-2.13.49-3.65,1.47-4.56.98-.91,2.41-1.36,4.28-1.36.56,0,1.13.04,1.71.12s1.04.18,1.39.3v2.2c-.85-.31-1.82-.46-2.9-.46-.76,0-1.37.11-1.83.34-.46.23-.8.61-1.03,1.16-.23.55-.34,1.3-.34,2.26,0,1.02.1,1.8.3,2.34s.52.92.95,1.14c.44.21,1.05.32,1.83.32.53,0,.94-.03,1.23-.1v-2.49h-1.96v-2.11h4.29v6.3c-.45.14-1.02.27-1.69.37-.67.1-1.35.15-2.04.15-1.27,0-2.31-.17-3.13-.5-.82-.33-1.44-.93-1.88-1.79-.44-.86-.65-2.07-.65-3.63Z"/>
      <path class="cls-1" d="M191.58,63.99h-2.52v-11.5h2.52v11.5Z"/>
      <path class="cls-1" d="M194,63.99v-11.5h7.03v2.19h-4.51v2.37h4.18v2.11h-4.18v2.65h4.74v2.19h-7.26Z"/>
      <path class="cls-1" d="M202.82,63.74v-2.21c.38.13.87.24,1.47.33.61.09,1.2.13,1.77.13.76,0,1.29-.1,1.58-.3.29-.2.44-.56.44-1.08,0-.31-.05-.55-.16-.73-.11-.18-.3-.33-.6-.47-.29-.14-.74-.28-1.33-.42-.84-.2-1.48-.42-1.93-.67-.45-.25-.77-.58-.95-.99-.19-.41-.28-.96-.28-1.66,0-1.18.36-2.04,1.07-2.57.71-.53,1.76-.8,3.14-.8.61,0,1.17.04,1.67.12.51.08.93.18,1.28.3v2.07c-.3-.1-.73-.19-1.3-.28-.57-.09-1.09-.13-1.55-.13-.67,0-1.15.09-1.43.27-.28.18-.42.5-.42.96,0,.27.05.47.14.62s.28.28.55.4.69.25,1.27.39c.93.23,1.63.49,2.1.78.47.29.8.65.98,1.09.18.44.27,1.04.27,1.79,0,1.16-.35,2.03-1.05,2.6s-1.83.86-3.37.86c-.62,0-1.23-.04-1.85-.13s-1.11-.18-1.5-.29Z"/>
    </g>
    <g>
      <path class="cls-1" d="M100.02,33.25l-9.48-16.19h8.71l4.41,9.19h.22l4.78-9.19h8.37l-9.56,15.97v9.74h-7.45v-9.52Z"/>
      <path class="cls-1" d="M130.95,43.15c-1.8,0-3.42-.14-4.85-.41-1.43-.27-2.64-.75-3.63-1.43-.99-.68-1.75-1.6-2.28-2.78-.53-1.17-.8-2.66-.8-4.46v-17h7.37v16.48c0,.42.05.83.15,1.22.1.4.3.75.61,1.06.31.31.73.56,1.28.74s1.26.28,2.15.28,1.65-.1,2.2-.31c.56-.21.99-.48,1.3-.81.31-.33.51-.69.61-1.07.1-.38.15-.75.15-1.09v-16.48h7.33v17c0,1.63-.27,3.03-.8,4.19-.53,1.16-1.3,2.1-2.3,2.82-1,.72-2.22,1.24-3.65,1.57s-3.05.5-4.85.5Z"/>
      <path class="cls-1" d="M154.29,43.15c-1.43,0-2.8-.09-4.09-.26-1.3-.17-2.4-.37-3.31-.59v-6.33c.42.12.91.25,1.48.37.57.12,1.17.23,1.8.31.63.09,1.27.15,1.91.2.64.05,1.25.07,1.81.07.76,0,1.38-.04,1.83-.11.46-.07.81-.19,1.06-.35.25-.16.41-.38.48-.65.07-.27.11-.6.11-1,0-.27-.04-.52-.13-.74-.09-.22-.26-.43-.52-.61-.26-.18-.63-.37-1.11-.56s-1.13-.38-1.94-.57c-1.41-.32-2.56-.69-3.46-1.09-.9-.41-1.61-.91-2.13-1.5-.52-.59-.88-1.29-1.07-2.09-.2-.8-.3-1.78-.3-2.94,0-1.51.23-2.77.7-3.8.47-1.02,1.14-1.85,2.02-2.48.88-.63,1.94-1.07,3.19-1.33s2.64-.39,4.17-.39,2.94.09,4,.28c1.06.19,1.95.4,2.67.65v5.89c-.27-.1-.66-.2-1.17-.3-.51-.1-1.06-.19-1.65-.28-.59-.09-1.2-.16-1.81-.22-.62-.06-1.18-.09-1.7-.09-1.18,0-2.03.14-2.54.43-.51.28-.76.73-.76,1.35,0,.3.04.54.13.74.09.2.26.38.54.54s.65.31,1.15.46,1.14.32,1.93.52c1.61.42,2.88.88,3.83,1.37s1.67,1.06,2.17,1.7c.49.64.82,1.4.96,2.26.15.86.22,1.88.22,3.04,0,1.28-.17,2.43-.52,3.43-.35,1-.92,1.85-1.72,2.54-.8.69-1.87,1.22-3.2,1.59-1.33.37-3,.56-5,.56Z"/>
      <path class="cls-1" d="M174.7,33.25l-9.48-16.19h8.71l4.41,9.19h.22l4.78-9.19h8.37l-9.56,15.97v9.74h-7.45v-9.52Z"/>
      <path class="cls-1" d="M200.37,43.15c-1.43,0-2.8-.09-4.09-.26-1.3-.17-2.4-.37-3.31-.59v-6.33c.42.12.91.25,1.48.37.57.12,1.17.23,1.8.31.63.09,1.27.15,1.91.2.64.05,1.25.07,1.81.07.76,0,1.38-.04,1.83-.11.46-.07.81-.19,1.06-.35.25-.16.41-.38.48-.65.07-.27.11-.6.11-1,0-.27-.04-.52-.13-.74-.09-.22-.26-.43-.52-.61-.26-.18-.63-.37-1.11-.56s-1.13-.38-1.94-.57c-1.41-.32-2.56-.69-3.46-1.09-.9-.41-1.61-.91-2.13-1.5-.52-.59-.88-1.29-1.07-2.09-.2-.8-.3-1.78-.3-2.94,0-1.51.23-2.77.7-3.8.47-1.02,1.14-1.85,2.02-2.48.88-.63,1.94-1.07,3.19-1.33s2.64-.39,4.17-.39,2.94.09,4,.28c1.06.19,1.95.4,2.67.65v5.89c-.27-.1-.66-.2-1.17-.3-.51-.1-1.06-.19-1.65-.28-.59-.09-1.2-.16-1.81-.22-.62-.06-1.18-.09-1.7-.09-1.18,0-2.03.14-2.54.43-.51.28-.76.73-.76,1.35,0,.3.04.54.13.74.09.2.26.38.54.54s.65.31,1.15.46,1.14.32,1.93.52c1.61.42,2.88.88,3.83,1.37s1.67,1.06,2.17,1.7c.49.64.82,1.4.96,2.26.15.86.22,1.88.22,3.04,0,1.28-.17,2.43-.52,3.43-.35,1-.92,1.85-1.72,2.54-.8.69-1.87,1.22-3.2,1.59-1.33.37-3,.56-5,.56Z"/>
    </g>
  </g>
</svg>